HIERARCHY
ROOT Hips
{
  OFFSET 3.13124 94.3669 -3.18751
  CHANNELS  6 Xposition Yposition Zposition Zrotation Xrotation Yrotation
  JOINT LeftUpLeg
  {
    OFFSET 8.64259 1.95398 -2.38835
    CHANNELS 3 Zrotation Xrotation Yrotation
    JOINT LeftLeg
    {
      OFFSET 43.7702 0 0
      CHANNELS 3 Zrotation Xrotation Yrotation
      JOINT LeftFoot
      {
        OFFSET 40.6238 0 0
        CHANNELS 3 Zrotation Xrotation Yrotation
        JOINT LeftToeBase
        {
          OFFSET 12.7242 0 0
          CHANNELS 3 Zrotation Xrotation Yrotation
          End Site
          {
            OFFSET 0 0 0
          }
        }
      }
    }
  }
  JOINT RightUpLeg
  {
    OFFSET -8.2249 1.95398 -2.59336
    CHANNELS 3 Zrotation Xrotation Yrotation
    JOINT RightLeg
    {
      OFFSET 43.5653 0 0
      CHANNELS 3 Zrotation Xrotation Yrotation
      JOINT RightFoot
      {
        OFFSET 40.6238 0 0
        CHANNELS 3 Zrotation Xrotation Yrotation
        JOINT RightToeBase
        {
          OFFSET 12.7242 0 0
          CHANNELS 3 Zrotation Xrotation Yrotation
          End Site
          {
            OFFSET 0 0 0
          }
        }
      }
    }
  }
  JOINT Spine
  {
    OFFSET 0.165834 0.87714 6.61349
    CHANNELS 3 Zrotation Xrotation Yrotation
    JOINT Spine1
    {
      OFFSET 7.38962 1.71661e-005 0
      CHANNELS 3 Zrotation Xrotation Yrotation
      JOINT Spine2
      {
        OFFSET 11.9445 1.14441e-005 0
        CHANNELS 3 Zrotation Xrotation Yrotation
        JOINT Spine3
        {
          OFFSET 14.7254 4.19617e-005 0
          CHANNELS 3 Zrotation Xrotation Yrotation
          JOINT Spine4
          {
            OFFSET 10.9679 0 0
            CHANNELS 3 Zrotation Xrotation Yrotation
            JOINT RightShoulder
            {
              OFFSET 2.46616 -1.6653 3.69651
              CHANNELS 3 Zrotation Xrotation Yrotation
              JOINT RightArm
              {
                OFFSET 13.0012 0 0
                CHANNELS 3 Zrotation Xrotation Yrotation
                JOINT RightForeArm
                {
                  OFFSET 28.7848 1.52588e-005 0
                  CHANNELS 3 Zrotation Xrotation Yrotation
                  JOINT RightHand
                  {
                    OFFSET 26.5688 1.52588e-005 0
                    CHANNELS 3 Zrotation Xrotation Yrotation
                    End Site
                    {
                      OFFSET 0 0 0
                    }
                  }
                }
              }
            }
            JOINT LeftShoulder
            {
              OFFSET 2.38034 -1.29275 -3.75231
              CHANNELS 3 Zrotation Xrotation Yrotation
              JOINT LeftArm
              {
                OFFSET 16.3182 6.10352e-005 0
                CHANNELS 3 Zrotation Xrotation Yrotation
                JOINT LeftForeArm
                {
                  OFFSET 27.0901 0 0
                  CHANNELS 3 Zrotation Xrotation Yrotation
                  JOINT LeftHand
                  {
                    OFFSET 24.5451 1.52588e-005 0
                    CHANNELS 3 Zrotation Xrotation Yrotation
                    End Site
                    {
                      OFFSET 0 0 0
                    }
                  }
                }
              }
            }
            JOINT Neck
            {
              OFFSET 5.0226 -0.0266342 0
              CHANNELS 3 Zrotation Xrotation Yrotation
              JOINT Head
              {
                OFFSET 6.69363 2.86102e-005 0
                CHANNELS 3 Zrotation Xrotation Yrotation
                End Site
                {
                  OFFSET 0 0 0
                }
              }
            }
          }
        }
      }
    }
  }
}
MOTION
Frames:	8
Frame Time:	0.0333333
5.06595 95.559 -8.21874 -137.78 -89.9985 -137.763 -176.58 2.20689 90.0438 -8.26215 3.24954 0.286242 63.0297 1.45803 0.751281 28.7808 5.88671e-006 4.06985e-006 179.793 1.73753 89.6237 -7.28751 -0.077935 -0.00896171 62.65 -1.08574 -0.543603 28.7808 1.40415e-005 2.56726e-005 0.00135096 6.34689 -90.0172 14.1935 -0.000596199 -1.6466e-006 2.52251 0.00142283 -4.92481e-006 -20.0126 -3.91805e-006 2.89703e-006 3.34082e-037 1.25211e-017 -1.52874e-018 101.112 -18.0582 -84.7953 -6.74335 28.0875 -7.98506 -6.65134 -28.736 -9.45502 1.70749 0.100719 1.21832 -78.6194 -21.1343 95.1279 16.047 -29.6387 -5.44833 5.79772 29.5011 -9.63508 -2.03427 -0.0800792 1.7121 1.75438 -0.000423628 -0.00194281 -7.41122 0.00041459 0.00176947 
5.05672 95.5187 -8.21635 -117.943 -89.9667 -118.048 -176.579 2.82957 89.9193 -9.57501 3.26685 0.335689 63.1076 1.33456 0.658341 28.7808 5.88671e-006 4.06985e-006 179.833 0.302221 89.5548 -4.40012 -0.0526705 -0.00344925 62.225 -0.0850767 0.0395274 28.7808 1.40415e-005 2.56726e-005 -0.00848251 6.34603 -89.8938 14.1935 -0.000596199 -1.6466e-006 2.52251 0.00142283 -4.92481e-006 -20.0126 -3.91805e-006 2.89703e-006 3.18055e-015 9.31803e-018 -2.32951e-018 101.063 -17.9617 -84.8148 -6.75876 28.147 -7.93671 -6.74207 -28.5975 -9.68165 1.79248 0.109993 1.43656 -78.6427 -21.1979 95.1734 16.0725 -29.6596 -5.49445 5.77883 29.4409 -9.61508 -2.11518 -0.080082 1.64125 1.76229 -0.00840631 -0.0292571 -7.41148 0.00527688 0.0254127 
5.05803 95.5506 -8.21587 -79.7344 -89.942 -79.763 -176.587 2.53983 89.9938 -8.92904 3.2351 0.316348 63.0513 1.39901 0.70585 28.7808 5.88671e-006 4.06985e-006 179.78 2.53532 89.6587 -8.89931 -0.253849 -0.0211928 63.1767 -1.13874 -0.584413 28.7808 1.40415e-005 2.56726e-005 -0.00263986 6.34683 -89.9672 14.1935 -0.000596199 -1.6466e-006 2.52251 0.00142283 -4.92481e-006 -20.0126 -3.91805e-006 2.89703e-006 -1.59028e-015 6.21202e-018 -3.10601e-018 101.085 -17.859 -84.8098 -6.70347 28.196 -7.89167 -6.87832 -28.5347 -9.97893 1.72474 0.110613 1.65215 -78.6261 -21.2372 95.171 16.0892 -29.5975 -5.62549 5.58582 29.4094 -9.23925 -1.98338 -0.0800903 1.41925 1.73165 -0.0303787 0.00522931 -7.345 -0.0130714 -0.0267661 
5.04304 95.5263 -8.21594 -74.6689 -89.9171 -74.7063 -176.586 2.56957 89.9905 -8.97447 3.14107 0.297314 63.152 1.45231 0.737693 28.7808 5.88671e-006 4.06985e-006 179.832 0.473074 89.6467 -4.61859 -0.223759 -0.0137575 62.0562 -0.169638 -0.00240394 28.7808 1.40415e-005 2.56726e-005 -0.00372276 6.34675 -89.9538 14.1935 -0.000596199 -5.36954e-005 2.52253 0.00142283 -5.64673e-005 -20.0126 -3.91805e-006 -4.90967e-005 1.8104e-005 2.48481e-017 -5.22161e-005 101.072 -17.7397 -84.8727 -6.65017 28.0886 -8.09257 -6.62372 -28.3975 -9.48334 1.49237 0.0950188 1.5719 -78.6293 -21.2721 95.1442 16.0717 -29.6077 -5.55991 5.63682 29.3374 -9.36157 -1.99029 -0.080089 1.45861 1.70344 -0.0225099 0.116195 -7.32344 -0.011102 -0.155366 
5.03451 95.5543 -8.21003 -91.8698 -89.8938 -91.8772 -176.571 2.49236 90.029 -8.87721 3.19616 0.313627 63.0652 1.42555 0.722373 28.7808 5.88671e-006 4.06985e-006 179.793 2.54281 89.7113 -8.94035 -0.282152 -0.0227255 63.1967 -1.22679 -0.63593 28.7808 1.40415e-005 2.56726e-005 -0.00247076 6.34684 -89.9692 14.1931 -0.000596199 0.00102512 2.52215 0.00142283 0.00101427 -20.013 -0.000251325 0.00103971 -0.000358367 -0.000247575 0.00103398 101.017 -17.699 -84.9364 -6.17302 28.2166 -8.32762 -6.93024 -27.3189 -10.3979 1.21063 0.134603 5.05828 -78.6649 -21.2823 95.1366 16.0345 -29.67 -5.35121 5.89078 29.394 -9.85193 -2.15212 -0.0800789 1.71782 1.63657 -0.0160609 0.109941 -7.27065 -0.0139692 -0.125336 
5.01881 95.5175 -8.21325 -74.06 -89.8733 -74.0401 -176.572 2.33087 90.0568 -8.48591 3.16057 0.303229 63.2954 1.53344 0.794713 28.7808 5.88671e-006 4.06985e-006 179.783 3.144 89.7093 -10.0895 -0.461404 -0.0356445 63.554 -1.31555 -0.69111 28.7808 1.40415e-005 2.56726e-005 -0.00253017 6.34685 -89.9713 14.1832 -0.000596199 0.0296267 2.51223 0.00142283 0.029395 -20.0229 -0.00452466 0.029636 -0.0102661 -0.00452341 0.0296404 101.09 -17.8466 -84.8756 -6.56194 28.2369 -7.61574 -7.19087 -28.633 -10.5992 1.86631 0.124208 1.87287 -78.6143 -21.1734 95.1309 16.0147 -29.6688 -5.29362 5.94903 29.4718 -9.94448 -2.17918 -0.0804555 1.67407 1.72013 -0.0240466 -0.0547537 -7.28938 -0.0142245 -0.0345861 
5.00164 95.5434 -8.20943 -67.3956 -89.8791 -67.3742 -176.559 2.44943 90.0752 -8.68793 3.13681 0.295009 63.1393 1.48409 0.760686 28.7808 5.88671e-006 4.06985e-006 179.808 2.64654 89.729 -9.05229 -0.345142 -0.0311223 63.2294 -1.20448 -0.622798 28.7808 1.40415e-005 2.56726e-005 -0.00694246 6.34689 -89.9609 14.1799 -0.000596199 0.0405008 2.50892 0.00142283 0.0404805 -20.0262 -0.0129715 0.0383791 -0.0135881 -0.0129706 0.0383718 101.084 -17.9207 -84.8828 -6.49363 28.2794 -7.48349 -7.34564 -28.4573 -10.965 1.9557 0.133967 2.08478 -78.6214 -21.1581 95.1181 15.9903 -29.7233 -5.08626 6.15966 29.4173 -10.38 -2.29279 -0.0861015 1.84452 1.68526 -0.0161452 -0.069676 -7.21447 -0.00496703 -0.00259678 
4.98301 95.5402 -8.20383 -61.7498 -89.8882 -61.7363 -176.544 2.54373 90.0812 -8.86948 3.10492 0.273761 63.1576 1.4876 0.759981 28.7808 5.88671e-006 4.06985e-006 179.817 2.76522 89.7358 -9.29267 -0.301714 -0.0245724 63.3348 -1.20271 -0.624145 28.7808 1.40415e-005 2.56726e-005 -0.00814453 6.34822 -89.9445 14.1727 -0.000596199 0.0448804 2.50174 0.00142283 0.0448267 -20.0334 -0.0131826 0.0428589 -0.0207645 -0.0131901 0.042847 101.107 -17.9657 -84.8124 -6.34889 28.3987 -7.20566 -7.75254 -28.2808 -11.8571 2.15595 0.161511 2.703 -78.6323 -21.1864 95.1013 15.979 -29.7458 -5.03725 6.23148 29.4138 -10.5237 -2.35456 -0.0885149 1.95978 1.74678 -0.00954867 -0.0253654 -7.27228 -0.00141531 -0.0248126 
